# xmcd CD database file
#
# Track frame offsets:
#	150
#	18185
#	33365
#	52410
#	68830
#	83347
#	101230
#	117910
#	137235
#	153050
#
# Disc length: 2313 seconds
#
# Revision: 0
# Processed by: cddbd v1.5.1PL0 Copyright (c) Steve Scherf et al.
# Submitted via: CDex 1.51
#
DISCID=7c09070a
DTITLE=Gilbert Laffaille - ZAZOU
DYEAR=1988
DGENRE=World
TTITLE0=Cha Cha Media
TTITLE1=Les Bigoudis Par Douze
TTITLE2=Neige
TTITLE3=A La Vie, A La Mort
TTITLE4=Toule Poule
TTITLE5=C.Q.F.D
TTITLE6=L'an 2000
TTITLE7=Zapping Blues
TTITLE8=Tout M'etonne
TTITLE9=Le Vieux Theatre
EXTD=YEAR: 1988
EXTT0=
EXTT1=
EXTT2=
EXTT3=
EXTT4=
EXTT5=
EXTT6=
EXTT7=
EXTT8=
EXTT9=
PLAYORDER=
